{
    "accessors" : [
        {
            "bufferView" : 0,
            "componentType" : 5121,
            "count" : 1110,
            "max" : [
                251
            ],
            "min" : [
                0
            ],
            "type" : "SCALAR"
        },
        {
            "bufferView" : 1,
            "componentType" : 5126,
            "count" : 252,
            "max" : [
                0.14249621331691742,
                0.3953196704387665,
                0.3953196406364441
            ],
            "min" : [
                -0.146528959274292,
                -0.3953196704387665,
                -0.39531970024108887
            ],
            "type" : "VEC3"
        },
        {
            "bufferView" : 2,
            "componentType" : 5126,
            "count" : 252,
            "max" : [
                0.9732047319412231,
                1.0,
                1.0
            ],
            "min" : [
                -0.9894406199455261,
                -0.999969482421875,
                -1.0
            ],
            "type" : "VEC3"
        },
        {
            "bufferView" : 3,
            "componentType" : 5126,
            "count" : 252,
            "max" : [
                0.9644330739974976,
                0.9999979734420776,
                1.0,
                1.0
            ],
            "min" : [
                -0.9644330739974976,
                -0.9999979138374329,
                -1.0,
                1.0
            ],
            "type" : "VEC4"
        },
        {
            "bufferView" : 4,
            "componentType" : 5126,
            "count" : 252,
            "max" : [
                0.9947259426116943,
                0.9865929782390594
            ],
            "min" : [
                0.008488059043884277,
                0.009710192680358887
            ],
            "type" : "VEC2"
        }
    ],
    "asset" : {
        "generator" : "Khronos Blender glTF 2.0 exporter",
        "version" : "2.0"
    },
    "bufferViews" : [
        {
            "buffer" : 0,
            "byteLength" : 1110,
            "byteOffset" : 0,
            "target" : 34963
        },
        {
            "buffer" : 0,
            "byteLength" : 3024,
            "byteOffset" : 1112,
            "target" : 34962
        },
        {
            "buffer" : 0,
            "byteLength" : 3024,
            "byteOffset" : 4136,
            "target" : 34962
        },
        {
            "buffer" : 0,
            "byteLength" : 4032,
            "byteOffset" : 7160,
            "target" : 34962
        },
        {
            "buffer" : 0,
            "byteLength" : 2016,
            "byteOffset" : 11192,
            "target" : 34962
        }
    ],
    "buffers" : [
        {
            "byteLength" : 13208,
            "uri" : "lowPoly_car_wheel.bin"
        }
    ],
    "images" : [
        {
            "name" : "Wheel_Diffuse.png",
            "uri" : "Wheel_Diffuse.png"
        }
    ],
    "materials" : [
        {
            "alphaMode" : "BLEND",
            "name" : "Wheel",
            "pbrMetallicRoughness" : {
                "baseColorTexture" : {
                    "index" : 0
                }
            }
        }
    ],
    "meshes" : [
        {
            "name" : "Wheel_LOD0",
            "primitives" : [
                {
                    "attributes" : {
                        "NORMAL" : 2,
                        "POSITION" : 1,
                        "TANGENT" : 3,
                        "TEXCOORD_0" : 4
                    },
                    "indices" : 0,
                    "material" : 0
                }
            ]
        }
    ],
    "nodes" : [
        {
            "mesh" : 0,
            "name" : "Wheel_LOD0",
            "rotation" : [
                -2.821299744937278e-07,
                1.0,
                1.6292068494294654e-07,
                -4.5964805312631585e-14
            ]
        }
    ],
    "samplers" : [
        {}
    ],
    "scene" : 0,
    "scenes" : [
        {
            "name" : "Scene",
            "nodes" : [
                0
            ]
        }
    ],
    "textures" : [
        {
            "sampler" : 0,
            "source" : 0
        }
    ]
}
